<svg xmlns="http://www.w3.org/2000/svg" width="300" height="284" viewBox="0 0 300 284" fill="none"><rect x="0.5" y="1.46631" width="299" height="281.983" rx="23.5" fill="white"></rect><rect x="0.5" y="1.46631" width="299" height="281.983" rx="23.5" stroke="#E1E2E6"></rect><path d="M137.146 136.608C135.173 135.281 129.991 134.715 126.223 135.729C126.02 131.978 124.085 128.816 120.543 126.06L119.234 125.18L118.36 126.499C116.643 129.103 115.92 132.575 116.175 135.73C116.378 137.674 117.053 139.859 118.36 141.445C113.455 144.288 108.935 143.643 88.9153 143.643H58.007C57.9164 148.161 58.6435 156.852 64.1729 163.927C64.7832 164.708 65.453 165.465 66.1801 166.192C70.6761 170.692 77.469 173.992 87.6268 174C103.122 174.014 116.399 165.642 124.476 145.401C127.134 145.445 134.148 145.876 137.581 139.247C137.665 139.135 138.455 137.489 138.455 137.489L137.146 136.608ZM78.1794 131.944H69.4878V140.631H78.1794V131.944ZM89.4075 131.944H80.7159V140.631H89.4075V131.944ZM100.637 131.944H91.9452V140.631H100.637V131.944ZM111.865 131.944H103.174V140.631H111.866V131.944H111.865ZM66.9501 131.944H58.2585V140.631H66.9501V131.944ZM78.1794 120.973H69.4878V129.66H78.1794V120.973ZM89.4075 120.973H80.7159V129.66H89.4075V120.973ZM100.637 120.973H91.9452V129.66H100.637V120.973ZM100.637 110H91.9452V118.687H100.637V110Z" fill="#1D63ED"></path><path d="M241.856 151.148C241.856 152.276 240.97 153.162 239.817 153.162C238.676 153.162 237.766 152.276 237.766 151.148C237.766 150.045 238.676 149.159 239.817 149.159C240.97 149.16 241.856 150.045 241.856 151.148ZM238.276 151.148C238.276 152.034 238.931 152.738 239.829 152.738C240.703 152.738 241.347 152.034 241.347 151.161C241.347 150.275 240.703 149.559 239.818 149.559C238.931 149.559 238.276 150.276 238.276 151.148ZM239.502 152.192H239.04V150.202C239.222 150.166 239.477 150.142 239.804 150.142C240.181 150.142 240.35 150.202 240.496 150.288C240.606 150.372 240.691 150.53 240.691 150.724C240.691 150.943 240.521 151.113 240.279 151.185V151.21C240.472 151.282 240.582 151.428 240.642 151.695C240.703 151.998 240.739 152.119 240.788 152.192H240.291C240.23 152.119 240.193 151.938 240.133 151.706C240.096 151.488 239.975 151.391 239.72 151.391H239.502V152.192ZM239.514 151.064H239.732C239.987 151.064 240.193 150.979 240.193 150.773C240.193 150.591 240.06 150.469 239.768 150.469C239.647 150.469 239.562 150.481 239.514 150.494V151.064Z" fill="#1D63ED"></path><path d="M163.648 131.015C163.362 130.736 163.019 130.594 162.609 130.594C162.188 130.594 161.845 130.736 161.571 131.015C161.295 131.294 161.161 131.651 161.161 132.077V139.189C159.748 138.022 158.118 137.433 156.264 137.433C154.109 137.433 152.266 138.211 150.74 139.772C149.213 141.328 148.455 143.21 148.455 145.418C148.455 147.625 149.218 149.502 150.74 151.063C152.266 152.619 154.104 153.402 156.264 153.402C158.424 153.402 160.242 152.624 161.789 151.063C163.316 149.523 164.074 147.641 164.074 145.418V132.077C164.073 131.651 163.933 131.294 163.648 131.015ZM160.776 147.342V147.352C160.522 147.957 160.174 148.488 159.733 148.94C159.292 149.397 158.772 149.755 158.18 150.023C157.583 150.291 156.95 150.422 156.27 150.422C155.59 150.422 154.941 150.291 154.343 150.023C153.746 149.755 153.232 149.397 152.796 148.945C152.36 148.493 152.013 147.962 151.758 147.358C151.504 146.748 151.374 146.102 151.374 145.418C151.374 144.735 151.504 144.088 151.758 143.478C152.013 142.868 152.361 142.343 152.796 141.89C153.232 141.438 153.752 141.081 154.343 140.813C154.941 140.545 155.579 140.413 156.27 140.413C156.96 140.413 157.583 140.545 158.18 140.813C158.777 141.081 159.292 141.438 159.733 141.896C160.174 142.353 160.522 142.884 160.776 143.483C161.031 144.088 161.161 144.729 161.161 145.412C161.16 146.096 161.031 146.742 160.776 147.342Z" fill="#1D63ED"></path><path d="M228.168 142.353C227.789 141.407 227.211 140.55 226.454 139.782L226.444 139.777C224.901 138.221 223.057 137.438 220.919 137.438C218.779 137.438 216.921 138.216 215.394 139.777C213.867 141.333 213.109 143.215 213.109 145.422C213.109 147.63 213.873 149.507 215.394 151.068C216.92 152.624 218.759 153.407 220.919 153.407C222.881 153.407 224.579 152.761 226.023 151.468C226.302 151.173 226.444 150.816 226.444 150.4C226.444 149.984 226.309 149.617 226.033 149.338C225.758 149.059 225.41 148.918 224.995 148.918C224.632 148.928 224.309 149.049 224.035 149.291C223.598 149.669 223.126 149.959 222.612 150.148C222.098 150.338 221.537 150.432 220.925 150.432C220.384 150.432 219.865 150.348 219.372 150.175C218.878 150.002 218.417 149.765 218.006 149.455C217.59 149.145 217.233 148.777 216.927 148.34C216.62 147.909 216.387 147.431 216.231 146.906H227.276C227.685 146.906 228.028 146.764 228.314 146.485C228.6 146.206 228.74 145.849 228.74 145.423C228.739 144.319 228.546 143.294 228.168 142.353ZM216.22 143.941C216.371 143.42 216.599 142.942 216.905 142.506C217.212 142.074 217.575 141.702 217.99 141.391C218.411 141.081 218.868 140.844 219.371 140.671C219.874 140.498 220.388 140.414 220.919 140.414C221.448 140.414 221.962 140.498 222.46 140.671C222.959 140.844 223.417 141.081 223.826 141.391C224.242 141.702 224.605 142.069 224.911 142.506C225.222 142.937 225.457 143.415 225.618 143.941H216.22Z" fill="#1D63ED"></path><path d="M241.74 138.437C241.48 138.18 241.153 137.98 240.758 137.833C240.364 137.685 239.933 137.585 239.46 137.528C238.993 137.47 238.552 137.444 238.142 137.444C237.212 137.444 236.34 137.596 235.52 137.901C234.699 138.206 233.941 138.642 233.245 139.21V138.926C233.245 138.516 233.105 138.169 232.819 137.88C232.534 137.591 232.196 137.444 231.797 137.444C231.396 137.444 231.044 137.591 230.759 137.88C230.473 138.169 230.333 138.522 230.333 138.926V151.926C230.333 152.336 230.473 152.683 230.759 152.972C231.044 153.261 231.386 153.408 231.797 153.408C232.206 153.408 232.539 153.261 232.819 152.972C233.105 152.683 233.245 152.33 233.245 151.926V145.423C233.245 144.729 233.375 144.078 233.629 143.468C233.884 142.858 234.232 142.333 234.673 141.88C235.115 141.428 235.634 141.071 236.225 140.813C236.823 140.55 237.457 140.419 238.137 140.419C238.817 140.419 239.46 140.54 240.048 140.776C240.281 140.882 240.484 140.934 240.661 140.934C240.863 140.934 241.055 140.897 241.232 140.818C241.408 140.74 241.564 140.634 241.694 140.498C241.824 140.362 241.927 140.204 242.005 140.02C242.083 139.841 242.125 139.646 242.125 139.436C242.125 139.026 241.995 138.695 241.736 138.437H241.74Z" fill="#1D63ED"></path><path d="M180.772 142.359C180.393 141.418 179.826 140.556 179.064 139.778C177.522 138.222 175.679 137.439 173.539 137.439C171.399 137.439 169.541 138.217 168.014 139.778C166.487 141.334 165.73 143.216 165.73 145.423C165.73 147.631 166.493 149.507 168.014 151.069C169.541 152.624 171.379 153.408 173.539 153.408C175.699 153.408 177.516 152.63 179.064 151.069C180.59 149.528 181.349 147.647 181.349 145.423C181.338 144.319 181.145 143.299 180.772 142.359ZM178.051 147.342V147.352C177.797 147.957 177.449 148.488 177.008 148.94C176.566 149.397 176.047 149.755 175.455 150.023C174.863 150.291 174.224 150.422 173.544 150.422C172.864 150.422 172.215 150.291 171.618 150.023C171.021 149.755 170.507 149.397 170.071 148.945C169.635 148.493 169.287 147.962 169.033 147.358C168.778 146.748 168.648 146.102 168.648 145.418C168.648 144.735 168.778 144.088 169.033 143.478C169.287 142.868 169.635 142.343 170.071 141.89C170.507 141.438 171.026 141.081 171.618 140.813C172.215 140.545 172.854 140.413 173.544 140.413C174.234 140.413 174.858 140.545 175.455 140.813C176.052 141.081 176.566 141.438 177.008 141.896C177.449 142.353 177.797 142.884 178.051 143.483C178.306 144.088 178.435 144.729 178.435 145.412C178.435 146.096 178.306 146.743 178.051 147.342Z" fill="#1D63ED"></path><path d="M212.008 138.921C212.008 138.721 211.966 138.532 211.889 138.353C211.811 138.174 211.707 138.012 211.577 137.875C211.447 137.738 211.292 137.627 211.115 137.554C210.939 137.481 210.747 137.439 210.544 137.439C210.254 137.439 209.994 137.513 209.765 137.665L201.427 143.211V132.087C201.427 131.666 201.287 131.314 201.001 131.025C200.716 130.736 200.378 130.589 199.978 130.589C199.579 130.589 199.226 130.736 198.94 131.025C198.654 131.314 198.514 131.666 198.514 132.087V151.904C198.514 152.314 198.654 152.667 198.94 152.961C199.225 153.255 199.568 153.402 199.978 153.402C200.388 153.402 200.721 153.255 201.001 152.961C201.287 152.667 201.427 152.314 201.427 151.904V146.758L203.13 145.617L209.574 153.013C209.833 153.271 210.161 153.397 210.55 153.397C210.752 153.397 210.944 153.36 211.121 153.281C211.297 153.207 211.453 153.097 211.583 152.961C211.713 152.824 211.816 152.667 211.894 152.483C211.972 152.304 212.013 152.109 212.013 151.915C212.013 151.526 211.879 151.179 211.608 150.874L205.611 143.972L211.452 140.093C211.826 139.835 212.008 139.441 212.008 138.91V138.921H212.008Z" fill="#1D63ED"></path><path d="M187.319 141.88C187.765 141.428 188.285 141.071 188.882 140.813C189.479 140.55 190.113 140.419 190.793 140.419C191.406 140.419 191.972 140.524 192.496 140.734C193.015 140.944 193.514 141.254 193.986 141.659C194.266 141.884 194.583 142 194.936 142C195.357 142 195.699 141.858 195.975 141.574C196.25 141.29 196.385 140.933 196.385 140.507C196.385 140.081 196.219 139.686 195.881 139.382C194.448 138.089 192.751 137.442 190.793 137.442C188.638 137.442 186.795 138.22 185.268 139.781C183.741 141.337 182.984 143.219 182.984 145.427C182.984 147.635 183.747 149.511 185.268 151.072C186.795 152.628 188.633 153.411 190.793 153.411C192.745 153.411 194.443 152.765 195.881 151.471C196.188 151.156 196.344 150.793 196.344 150.373C196.344 149.952 196.208 149.59 195.934 149.311C195.658 149.032 195.311 148.89 194.896 148.89C194.543 148.901 194.236 149.006 193.977 149.205C193.509 149.615 193.021 149.92 192.497 150.125C191.978 150.33 191.411 150.43 190.793 150.43C190.113 150.43 189.48 150.298 188.883 150.036C188.286 149.773 187.767 149.416 187.32 148.969C186.873 148.522 186.52 147.986 186.265 147.381C186.011 146.772 185.881 146.12 185.881 145.426C185.881 144.732 186.011 144.08 186.265 143.471C186.52 142.861 186.873 142.335 187.32 141.883V141.88H187.319Z" fill="#1D63ED"></path></svg>